<?xml version="1.0" encoding="UTF-8"?> <!-- Generator: Adobe Illustrator 22.1.0, SVG Export Plug-In . SVG Version: 6.00 Build 0) --> <svg xmlns="http://www.w3.org/2000/svg" xmlns:xlink="http://www.w3.org/1999/xlink" id="Layer_1" x="0px" y="0px" width="317.9px" height="150px" viewBox="0 0 317.9 150" style="enable-background:new 0 0 317.9 150;" xml:space="preserve"> <style type="text/css"> .st0{fill:#FFFFFF;} .st1{fill:#FFAB19;} </style> <g> <g> <path class="st0" d="M269.1,122.6c-3.2,0.2-5.2,0.5-6.1,0.7c-1.7,0.6-5.1,1.8-9.6,1.8c-5.6,0-11-1.9-15.3-5.3l-3.3,0 c-1.1,0-2.2-0.1-3.2-0.3c-4.7,1.6-8.6,1.6-10.9,1.6l-1,0c-5.7,0.3-11.3-0.9-16.2-3.2c-2.3,0.7-4.6,1-7.1,1.1l-15.1,0.2 c-6.8,0.1-13.1-2.6-17.8-7c-2,0-3.9-0.2-5.8-0.7c-2.6,3-5.8,5.4-9.6,7.2c-7.6,3.7-16.3,3.9-24.5,0.6c-1-0.4-1.9-0.8-2.8-1.3 l-9.2,1.3c-0.2,0-0.3,0.1-0.5,0.1c-0.9,0.1-1.7,0.1-2.4,0.2c-1,0.6-2,1.1-2.9,1.5c-6.3,2.9-11.7,3-14.3,3l-0.9,0 c-0.4,0-0.9,0-1.3,0c-7,0-13.7-1.9-19.2-5.5c-1.7,0.4-3.4,0.7-5.2,0.8c-3.8,2.6-8.1,4.1-12.8,4.3c-0.4,0-1,0-1.6,0 c-13.3,0-24.4-10.3-25.4-23.6v-0.1c0-0.2,0-0.3,0-0.5c-0.1-2.1-0.3-6.3,0-11.2c0.1-2.3,0.2-6.2,0.2-6.7v-0.2 c0.1-3.3,0.8-6.7,2.1-9.7c-0.3-3.1-0.2-6.4,0.2-9.8l0.1-1c0.4-3,1.1-8.6,4.2-14.2c5.1-9.7,14.8-15.7,25.9-15.9 c3.4-1.7,7.2-2.6,11.1-2.6c0.4,0,0.8,0,1.1,0c8.2,0.4,15.3,4.6,19.8,10.9c3.6-3.1,8.1-5.2,13-5.9c9.6-1.4,17.8-1.5,24.8-0.5 c3.7-3.3,8.3-5.5,13.4-6.2l10.4-1.4c1.5-0.2,2.7-0.2,3.6-0.2c6.2,0,12.2,2.3,16.9,6.4c0.2,0,0.5,0,0.7,0l15.5-0.3 c6.5-0.1,12.3-0.5,13.6-0.6c0.5,0,0.9-0.1,1.4-0.1c0.3,0,0.6,0,0.9,0c5.8,0,11.6,2.1,16.1,5.8c4.3-3.2,9.6-5,15.2-5h5.3 c3.9-2.6,8.5-4,13.3-4.1l13.1-0.2h0.2c13.8,0,25.2,11.2,25.5,25c0.1,6.3-2.2,12.3-6.1,17l0.1,11.7c3.5,4.1,5.7,9.3,6.1,14.9 C293.8,109.5,283.1,121.7,269.1,122.6z"></path> </g> <path class="st1" d="M268.2,108.3c-5.1,0.3-8.3,0.9-9.2,1.2l-0.6,0.2c-1.1,0.4-2.8,1.1-5,1.1c-2.6,0-5.2-1-7.1-2.8 c-0.8-0.7-1.5-1.5-2-2.4l-9.2-0.1c-1.6,0-3.2-0.4-4.6-1.1c-0.6,0.3-1.1,0.6-1.7,0.8c-3.3,1.6-6.2,1.6-8.3,1.6l-1.3,0 c-0.2,0-0.5,0-0.7,0c-6.1,0-10.9-2.2-14.3-5.5l0,0c-2.1,2.1-4.9,3.3-7.9,3.4l-15.1,0.2c-5.4,0-10-3.9-11-9.1c-1.9,1.3-4.1,2-6.4,2 c-2.4,0-4.8-0.8-6.7-2.2c-0.4-0.3-0.8-0.6-1.2-1c-1.4,0.6-2.9,1-4.6,1h-0.6c-1.8,5-4.5,8.1-8.7,10.2c-2.1,1-4.3,1.5-6.6,1.5 c-2.1,0-4.3-0.4-6.5-1.3c-2-0.8-3.6-1.9-4.9-3.2c-0.8,0.3-1.7,0.6-2.6,0.7l-11.9,1.8c-0.6,0.1-1.1,0.1-1.6,0.1 c-1.1,0-2.1-0.1-3.1-0.4c-1.7,1.6-3.6,2.6-5.2,3.3c-3.3,1.6-6.2,1.6-8.3,1.6l-1.3,0c-0.3,0-0.5,0-0.7,0c-7.3,0-12.8-3.2-16.3-7.7 c-3.3,2-7.2,3.1-11,3.1c-0.8,0-1.7-0.1-2.5-0.2c-0.2,0.2-0.3,0.4-0.5,0.7c-2,2.2-4.7,3.6-7.7,3.8c-0.2,0-0.4,0-0.7,0 c-5.8,0-10.7-4.6-11.1-10.4l0-0.2c-0.1-1.9-0.2-5.5,0-9.7c0.2-2.7,0.2-7.2,0.2-7.4v0c0.1-2.8,1.1-5.3,2.8-7.3 c-0.9-3-1.1-6.5-0.6-10.7l0.1-0.7c0.3-2.4,0.8-6.1,2.6-9.7c2.8-5.3,8-8.4,14.1-8.4c0.4,0,0.7,0,1.1,0c0.6,0,1.2,0.1,1.8,0.2 c2-1.8,4.6-2.8,7.4-2.8l0.1,0c6.1,0.1,11.1,5.1,11.1,11.2V54c0,0-0.1,2-0.2,4.6c2.1-0.9,4.4-1.4,6.8-1.4c1.1,0,2.2,0.1,3.2,0.3 c1.7-1.9,3.9-3.2,6.4-3.6c0.3-0.7,0.7-1.3,1.2-2c1.8-2.4,4.4-4,7.4-4.4c2.4-0.3,7.5-1,12.8-1c6.6,0,11.9,1,15.9,2.9 c1-4.4,4.7-7.9,9.4-8.6l10.5-1.4c0.5-0.1,1-0.1,1.5-0.1c3.1,0,6.1,1.3,8.2,3.5c0.8,0.8,1.9,2.4,2.5,3.8l0.5,1.2 c1.9-1.4,4.1-2.2,6.6-2.2l15.6-0.3c7.6-0.1,14.4-0.6,14.7-0.6l0.2,0c0.2,0,0.5,0,0.7,0c3,0,5.9,1.2,8,3.4c1.7,1.7,2.7,3.8,3.1,6.1 c0.3,0,0.6,0,0.9,0c1.1,0,2.2,0.1,3.2,0.2c1.7-1.9,4-3.2,6.7-3.6c2-3.2,5.5-5.3,9.5-5.3h10.5c2-2.4,5-4,8.5-4.1l13-0.2 c6.1,0,11.1,4.9,11.2,11c0,4.4-2.5,8.3-6.2,10.2c0.1,12.2,0.1,19.8,0.1,24.8c3.4,1.8,5.8,5.2,6.1,9.2 C279,102.6,274.3,107.9,268.2,108.3z"></path> <path class="st0" d="M59,73.8c-2.8-0.4-4.3-2.3-3.6-8.2l0.1-0.7c0.6-5.1,1.2-6.2,3.6-6.1c0.7,0,1.5,0.5,2.4,1.2 c0.8,0.9,2.5,2,3.4,4.3c0.7,1.7,0.9,2.7,1,3.9l0.2,1.4v0c0.2,1,1,1.8,2,2c1.3,0.2,2.6-0.6,2.9-2c0-0.2,0.6-15.5,0.6-15.8 c0-1.4-1.1-2.5-2.4-2.5c-1.4,0-2.5,1.1-2.5,2.4c0,0,0,2.1-0.1,4.3c-1.9-2.1-4.4-4-7.2-4.2c-7.4-0.4-8.2,6.4-8.7,10.4L50.5,65 c-1,7.8,1.6,12.7,7.7,13.6c6.6,1,11,2.6,11.1,6.6c0,1.6-0.8,3.2-2.3,4.5c-1.8,1.5-4.1,2.2-6.3,1.8c-0.7-0.1-1.3-0.3-1.9-0.5 c-0.9-0.5-3.1-1.8-4.2-3.3c-0.9-1.3-1.3-3.3-1.4-4.6c0-0.6,0-1,0-1c0-1.4-1.1-2.5-2.4-2.5c-1.4,0-2.5,1.1-2.5,2.4 c0,0-0.1,4.9-0.2,7.8c-0.3,4.7,0,8.6,0,8.8c0.1,1.4,1.3,2.4,2.6,2.3c1.4-0.1,2.4-1.2,2.3-2.6c0,0-0.1-1.9-0.1-4.6 c1.8,1.1,4.2,2.3,7,2.7c3.7,0.6,7.4-0.4,10.3-2.9c2.6-2.2,4-5.2,4-8.2C74.1,76.2,63.9,74.6,59,73.8"></path> <path class="st0" d="M127.3,66.7c-0.2,0.3-0.8,0.9-1.5,1.3c-0.6,0.4-1.4,0.6-2.2,0.9l-1.2,0.4c-1.7,0.6-4,1.3-6.5,1.7l0-11.2 c6.5-0.2,12.2,0.5,13.3,2.4c0.1,0.2,0.2,0.4,0.2,0.6C129.2,63.7,128.5,65.1,127.3,66.7 M141.2,88.6c-1.3-0.4-2.7,0.3-3.1,1.6 c-0.9,2.9-1.6,3-2.1,3.3c-0.5,0.2-1.2,0.2-2.2-0.2c-0.1-0.1-0.6-0.7-0.8-1.2c-0.4-0.8-0.8-4.2-0.9-6.2c-0.2-7.2-1.4-11.2-3.5-13.4 c1.4-0.9,2.4-2.1,2.5-2.2l0-0.1c3-3.9,3.7-7.3,2.1-10c-4-6.8-21.7-4.8-27-4c-1.4,0.2-2.3,1.4-2.1,2.8c0.2,1.3,1.4,2.3,2.8,2.1 c1.3-0.2,2.5-0.3,3.8-0.5l0,11.4c-0.4,0-0.8,0-1.2,0c-1.4,0-2.5,1.1-2.5,2.5c0,1.3,1.1,2.5,2.5,2.5c0.4,0,0.8,0,1.2,0l0.1,14.3 l-3.4,0.5c-1.4,0.2-2.3,1.4-2.1,2.8c0.2,1.4,1.4,2.3,2.8,2.1l11.9-1.8c1.3-0.2,2.3-1.4,2.1-2.8c-0.2-1.3-1.4-2.3-2.8-2.1l-3.6,0.5 l-0.1-14.1c2.3-0.4,4.6-0.9,6.4-1.4c0,0,0.6-0.1,0.9,0c1,0.2,1.5,0.3,2.1,1.2c0.8,1.1,1.8,3.7,1.9,9.9c0,1.2,0.3,6,1.3,8.2 c0.3,0.7,1.5,2.9,3.5,3.7c1.5,0.6,3.8,1.2,6.2,0.1c2.2-1.1,3.5-2.6,4.7-6.2C143.2,90.4,142.5,89,141.2,88.6"></path> <path class="st0" d="M229.6,80.9c-1.3,0-2.4,1.1-2.4,2.5l0.1,0.9c0,0.1-0.1,2-0.1,2.3c-0.1,1-0.5,2.6-0.8,3.2 c-0.4,0.6-0.7,1.1-1.4,1.9c-0.4,0.4-1.3,0.9-1.9,1.1c-0.6,0.3-1.2,0.3-2.7,0.3l-1.5,0c-6.4,0.2-7.2-5-7.3-6.1l-0.1-4.2l0.1-6.6 c0.3-4.2,1.3-7.1,2.8-8c1.1-0.7,3-0.5,5.7,0.6c3.3,1.4,5.5,4.9,5.5,4.9c0.6,0.9,1.7,1.4,2.8,1.1c1.1-0.3,1.8-1.3,1.8-2.4V61.8 c0-1.4-1.1-2.5-2.5-2.5c-1.4,0-2.5,1.1-2.5,2.5v4.4c-1-0.7-2-1.4-3.3-1.9c-1.5-0.6-6.3-2.6-10.1-0.2c-3,1.9-4.7,5.7-5.1,11.9 l-0.1,6.9l0.1,4.5c0.3,3.8,3.2,11,12.4,10.7l1.4,0c1.7,0,3.1,0,4.7-0.8c1.2-0.5,2.5-1.2,3.5-2.3c0.7-0.8,1.4-1.6,2-2.7 c0.9-1.7,1.4-4.5,1.4-5.1l0.1-2.8l-0.1-1C232.1,81.9,231,80.8,229.6,80.9"></path> <path class="st0" d="M269.9,97c-0.1-1.3-1.3-2.4-2.6-2.3c-0.9,0.1-2.1,0.1-3.4,0.3c0-4.2,0-12.6-0.2-40.1l3.8-0.1 c1.4,0,2.4-1.1,2.4-2.5c0-1.4-1.1-2.4-2.5-2.4l-12.8,0.2c-1.4,0-2.4,1.2-2.4,2.5c0,1.4,1.1,2.4,2.5,2.4l4.1-0.1 c0,5.4,0.1,11.2,0.1,17l-14.5,2.4l0-15.3h3.9c1.4,0,2.4-1.1,2.4-2.5c0-1.4-1.1-2.5-2.4-2.5h-12.9c-1.4,0-2.5,1.1-2.5,2.5 c0,1.4,1.1,2.5,2.5,2.5h4.1l-0.1,32.7l-4.1-0.1c-1.4,0-2.5,1.1-2.5,2.4c0,1.4,1.1,2.5,2.4,2.5l13.3,0.2c1.4,0,2.5-1.1,2.5-2.4 c0-1.4-1.1-2.5-2.4-2.5l-4.2-0.1l0-12.5l14.5-2.4c0,9.3,0.1,15.4,0.1,18.7c-3.4,0.6-5.6,0.9-7,2.4c-0.9,1-0.8,2.5,0.2,3.4 c1,0.9,2.1,0.4,3.5-0.1l0,0c1.4-0.6,6.1-1.4,12-1.8C269,99.5,270,98.3,269.9,97"></path> <path class="st0" d="M152.9,74.2l3-14.7l5.4,13.3L152.9,74.2z M174.4,78.2c-0.7,0.2-2.1,1-4.3,1.9l-3.2-7.8L157.7,50 c-0.1-0.2-0.6-1-0.8-1.2c-0.5-0.6-1.3-0.9-2.1-0.8l-10.5,1.4c-1.4,0.2-2.3,1.4-2.1,2.8c0.2,1.3,1.4,2.3,2.8,2.1c0,0,3.9-0.6,7.1-1 c-0.9,4.5-4.5,22.8-5.7,28.3l-7.1-0.3c-1.4-0.1-2.5,1-2.6,2.3c-0.1,1.4,1,2.5,2.4,2.6l12.2,0.6c1.4,0.1,2.5-1,2.6-2.3 c0.1-1.4-0.7-2.6-2.5-2.6l0.6-3.8l11.4-1.9l2.4,6c-1.9,1.1-3,1.7-3.9,2.9c-0.8,1.1-0.6,2.6,0.5,3.4c1.1,0.8,2.6,0.6,3.4-0.5 c1.1-1.5,5.7-3.7,10.3-5.3c1.3-0.5,1.9-1.9,1.5-3.1C177.1,78.4,175.7,77.7,174.4,78.2"></path> <path class="st0" d="M203.9,53.4c-0.1,0-7.3,0.5-15.3,0.7l-15.7,0.2c-0.7,0-1.4,0.3-1.9,0.9c-0.4,0.5-0.7,1.2-0.5,1.9l1.9,12.1 c0.2,1.3,1.5,2.3,2.8,2.1c1.2-0.2,2.1-1.2,2.1-2.4c0-0.1-1-6.3-1.5-9.7c0.6,0,10.4-0.2,10.4-0.2l0.1,32.1l-5.2,0.1 c-1.4,0-2.5,1.1-2.4,2.5c0,1.4,1.1,2.4,2.5,2.4l15-0.2c1.3,0,2.4-1.1,2.4-2.5c0-1.4-1.1-2.4-2.5-2.4l-4.9,0.1l0-32.1 c4.2-0.1,7.9-0.3,10.3-0.5c-0.1,2-0.2,3.6-0.2,4.7c0,2.6,0.3,3.1,0.5,3.5c0.6,1.1,2,1.4,3.1,0.9c0.9-0.4,1.4-1.4,1.3-2.5 c0,0,0-5.5,0.3-9.1c0-0.7-0.2-1.4-0.7-1.9C205.3,53.7,204.6,53.4,203.9,53.4"></path> <path class="st0" d="M100.4,83.5c-1.3,0-2.4,1.1-2.4,2.5l0.1,1.4c0,0.1,0,2,0,2.3c-0.2,1-0.5,2.6-0.8,3.2c-0.4,0.6-0.8,1.1-1.5,1.9 c-0.4,0.5-1.3,0.9-1.9,1.2c-0.6,0.3-1.2,0.3-2.7,0.3l-1.5,0c-6.4,0.2-7.2-5-7.3-6.2l-0.1-4.2l0.1-6.6c0.3-4.2,1.3-7.1,2.8-8 c1.2-0.7,3-0.5,5.7,0.6c3.3,1.4,5.5,4.9,5.5,4.9c0.6,0.9,1.7,1.4,2.8,1.1c1.1-0.3,1.8-1.2,1.8-2.3V64.9c0-1.4-1.1-2.5-2.5-2.5 c-1.4,0-2.5,1.1-2.5,2.5v4.4c-1-0.7-2-1.4-3.2-1.9c-1.6-0.7-6.3-2.6-10.1-0.2c-3,1.8-4.7,5.7-5.1,11.9l0,0.1l-0.1,6.7v0.1l0.1,4.3 l0,0.1c0.3,3.8,3.2,11,12.4,10.8l1.4,0c1.7,0,3.1,0,4.7-0.8c1.2-0.6,2.5-1.2,3.5-2.3c0.7-0.8,1.4-1.6,2-2.7 c0.9-1.7,1.4-4.5,1.5-5.1l0.1-2.9l-0.1-1.4C102.9,84.5,101.8,83.4,100.4,83.5"></path> </g> </svg> 